<svg width="219" height="27" viewBox="0 0 219 27" fill="none" xmlns="http://www.w3.org/2000/svg">
<path d="M2.54139e-05 16.284V0.574996H10.143V3.243H3.17403V7.981H8.87803V10.649H3.17403V16.284H2.54139e-05ZM11.8775 16.284V4.738H14.9365V6.095C15.1972 5.89566 15.5192 5.68866 15.9025 5.474C16.2859 5.244 16.6999 5.037 17.1445 4.853C17.6045 4.65366 18.0415 4.52333 18.4555 4.462V7.429C18.0569 7.49033 17.6352 7.59766 17.1905 7.751C16.7459 7.889 16.3242 8.04233 15.9255 8.211C15.5422 8.37966 15.2125 8.533 14.9365 8.671V16.284H11.8775ZM23.7333 16.537C22.7367 16.537 21.9623 16.33 21.4103 15.916C20.8737 15.4867 20.4903 14.8427 20.2603 13.984C20.0457 13.1253 19.9383 12.0443 19.9383 10.741V4.738H22.9973V10.603C22.9973 11.4157 23.0357 12.0597 23.1123 12.535C23.2043 13.0103 23.3807 13.3477 23.6413 13.547C23.902 13.7463 24.2777 13.846 24.7683 13.846C25.2437 13.846 25.6883 13.7847 26.1023 13.662C26.5163 13.5393 26.846 13.4167 27.0913 13.294V4.738H30.1503V16.284H27.1143V15.571C26.593 15.8623 26.0717 16.1 25.5503 16.284C25.0443 16.4527 24.4387 16.537 23.7333 16.537ZM32.6764 16.284V4.738H35.7354V16.284H32.6764ZM32.6764 2.898V0.275996H35.7584V2.898H32.6764ZM42.3396 16.56C41.4963 16.56 40.8139 16.4373 40.2926 16.192C39.7713 15.9467 39.3956 15.525 39.1656 14.927C38.9509 14.3137 38.8436 13.4627 38.8436 12.374V7.291H37.4866V4.738H38.8436V1.679H41.9026V4.738H44.8466V7.291H41.9026V11.569C41.9026 12.167 41.9256 12.6347 41.9716 12.972C42.0329 13.3093 42.1556 13.547 42.3396 13.685C42.5236 13.823 42.8073 13.892 43.1906 13.892C43.2979 13.892 43.4589 13.8843 43.6736 13.869C43.8883 13.8537 44.1029 13.8383 44.3176 13.823C44.5323 13.8077 44.7086 13.7923 44.8466 13.777L44.9386 16.238C44.5706 16.2993 44.1259 16.3683 43.6046 16.445C43.0986 16.5217 42.6769 16.56 42.3396 16.56Z" fill="#1B5E37"/>
<path d="M46.7412 16.284V0.574996H49.9152V7.13H56.0102V0.574996H59.1842V16.284H56.0102V9.798H49.9152V16.284H46.7412ZM67.9931 16.537C66.7051 16.537 65.6087 16.3683 64.7041 16.031C63.8147 15.6937 63.1401 15.134 62.6801 14.352C62.2201 13.5547 61.9901 12.4967 61.9901 11.178V0.574996H65.1641V11.293C65.1641 12.1977 65.4017 12.8493 65.8771 13.248C66.3677 13.6467 67.0731 13.846 67.9931 13.846C68.9591 13.846 69.6874 13.6467 70.1781 13.248C70.6687 12.8493 70.9141 12.1977 70.9141 11.293V0.574996H74.0881V11.132C74.0881 12.4507 73.8504 13.5087 73.3751 14.306C72.9151 15.1033 72.2327 15.6783 71.3281 16.031C70.4387 16.3683 69.3271 16.537 67.9931 16.537ZM76.8614 16.284V0.574996H83.1174C84.16 0.574996 85.057 0.705329 85.8084 0.965996C86.5597 1.22666 87.1424 1.64833 87.5564 2.231C87.9857 2.79833 88.2004 3.565 88.2004 4.531C88.2004 5.19033 88.1314 5.75 87.9934 6.21C87.8707 6.65466 87.6714 7.038 87.3954 7.36C87.1347 7.66666 86.7897 7.95033 86.3604 8.211C86.8204 8.37966 87.219 8.60966 87.5564 8.901C87.909 9.177 88.1774 9.55266 88.3614 10.028C88.5454 10.488 88.6374 11.1013 88.6374 11.868C88.6374 12.7113 88.507 13.4167 88.2464 13.984C87.9857 14.5513 87.61 15.0037 87.1194 15.341C86.644 15.6783 86.0844 15.9237 85.4404 16.077C84.7964 16.215 84.091 16.284 83.3244 16.284H76.8614ZM80.0354 13.938H83.0944C83.631 13.938 84.0757 13.8767 84.4284 13.754C84.7964 13.616 85.0724 13.3783 85.2564 13.041C85.4557 12.7037 85.5554 12.236 85.5554 11.638C85.5554 11.178 85.4787 10.8023 85.3254 10.511C85.172 10.2197 84.9727 10.005 84.7274 9.867C84.482 9.71366 84.206 9.60633 83.8994 9.545C83.608 9.48366 83.3167 9.453 83.0254 9.453H80.0354V13.938ZM80.0354 7.199H83.0024C83.7844 7.199 84.344 7.015 84.6814 6.647C85.034 6.279 85.2104 5.71933 85.2104 4.968C85.2104 4.24733 85.0187 3.726 84.6354 3.404C84.2674 3.082 83.6847 2.921 82.8874 2.921H80.0354V7.199Z" fill="#F4A91F"/>
<path d="M102.439 21.988C101.442 21.988 100.515 21.8423 99.6562 21.551C98.8128 21.275 98.0768 20.884 97.4482 20.378C96.8195 19.8873 96.3212 19.297 95.9532 18.607C95.6005 17.9323 95.4242 17.1963 95.4242 16.399C95.4242 16.1077 95.4472 15.732 95.4932 15.272C95.5392 14.812 95.6005 14.283 95.6772 13.685C95.7692 13.087 95.8688 12.4507 95.9762 11.776L99.0122 12.19C98.8588 13.156 98.7362 14.0147 98.6442 14.766C98.5522 15.5173 98.5062 16.0463 98.5062 16.353C98.5062 16.9357 98.6672 17.4493 98.9892 17.894C99.3112 18.3387 99.7635 18.6837 100.346 18.929C100.944 19.1897 101.642 19.32 102.439 19.32H108.948C109.945 19.32 110.688 19.067 111.179 18.561C111.67 18.055 111.915 17.319 111.915 16.353V15.479H114.974V16.353C114.974 17.457 114.729 18.4307 114.238 19.274C113.747 20.1173 113.05 20.7767 112.145 21.252C111.256 21.7427 110.19 21.988 108.948 21.988H102.439ZM110.903 16.284C110.198 16.284 109.515 16.2073 108.856 16.054C108.212 15.9007 107.599 15.6247 107.016 15.226L108.764 13.018C109.009 13.1867 109.224 13.317 109.408 13.409C109.607 13.4857 109.822 13.5393 110.052 13.57C110.297 13.6007 110.581 13.616 110.903 13.616H115.986V16.284H110.903ZM115.986 16.284V13.616C116.155 13.616 116.27 13.7387 116.331 13.984C116.408 14.214 116.446 14.536 116.446 14.95C116.446 15.3487 116.408 15.6707 116.331 15.916C116.27 16.1613 116.155 16.284 115.986 16.284ZM102.048 26.818V24.196H105.13V26.818H102.048ZM105.199 26.818V24.196H108.281V26.818H105.199ZM115.977 16.284V13.616H126.718L125.775 14.421V6.739L126.557 7.406H123.659C122.984 7.406 122.455 7.49033 122.072 7.659C121.688 7.82766 121.42 8.142 121.267 8.602C121.113 9.04666 121.037 9.683 121.037 10.511C121.037 11.4157 121.113 12.0903 121.267 12.535C121.42 12.9643 121.688 13.2557 122.072 13.409C122.455 13.547 122.984 13.616 123.659 13.616V16.008C122.355 16.008 121.282 15.824 120.439 15.456C119.595 15.088 118.967 14.5053 118.553 13.708C118.154 12.8953 117.955 11.8297 117.955 10.511C117.955 9.25366 118.154 8.19566 118.553 7.337C118.967 6.47833 119.595 5.83433 120.439 5.405C121.282 4.96033 122.355 4.738 123.659 4.738H128.857V16.284H115.977ZM115.977 16.284C115.793 16.284 115.67 16.1613 115.609 15.916C115.547 15.6707 115.517 15.3487 115.517 14.95C115.517 14.536 115.547 14.214 115.609 13.984C115.67 13.7387 115.793 13.616 115.977 13.616V16.284ZM122.44 2.622V-3.51667e-06H125.522V2.622H122.44ZM153.344 16.284V13.616H155.759V16.284H153.344ZM143.96 16.284C141.491 16.284 139.613 15.8087 138.325 14.858C137.037 13.892 136.393 12.466 136.393 10.58C136.393 10.212 136.416 9.82866 136.462 9.43C136.508 9.016 136.562 8.625 136.623 8.257C136.7 7.87366 136.769 7.53633 136.83 7.245C136.891 6.95366 136.937 6.739 136.968 6.601L139.958 7.176C139.912 7.42133 139.851 7.73566 139.774 8.119C139.697 8.50233 139.628 8.90866 139.567 9.338C139.506 9.752 139.475 10.1507 139.475 10.534C139.475 11.3313 139.644 11.96 139.981 12.42C140.318 12.8647 140.832 13.179 141.522 13.363C142.212 13.5317 143.078 13.616 144.121 13.616H152.056L150.262 15.111V0.0229962H153.344V16.284H143.96ZM155.759 16.284V13.616C155.943 13.616 156.066 13.7387 156.127 13.984C156.188 14.214 156.219 14.536 156.219 14.95C156.219 15.3487 156.188 15.6707 156.127 15.916C156.066 16.1613 155.943 16.284 155.759 16.284ZM143.477 7.613C143.186 7.26033 142.963 6.923 142.81 6.601C142.657 6.279 142.58 5.934 142.58 5.566C142.58 5.04466 142.718 4.577 142.994 4.163C143.27 3.73366 143.63 3.404 144.075 3.174C144.52 2.92866 145.01 2.806 145.547 2.806C145.838 2.806 146.137 2.84433 146.444 2.921C146.751 2.99766 147.011 3.11266 147.226 3.266L146.444 4.669C146.306 4.59233 146.168 4.54633 146.03 4.531C145.907 4.50033 145.777 4.485 145.639 4.485C145.271 4.485 144.987 4.58466 144.788 4.784C144.589 4.968 144.489 5.221 144.489 5.543C144.489 5.727 144.527 5.90333 144.604 6.072C144.681 6.24066 144.796 6.42466 144.949 6.624L143.477 7.613ZM142.074 7.797V6.118H147.64V7.797H142.074ZM155.755 16.284V13.616H159.964L158.17 15.111V4.738H161.252V16.284H155.755ZM155.755 16.284C155.571 16.284 155.448 16.1613 155.387 15.916C155.326 15.6707 155.295 15.3487 155.295 14.95C155.295 14.536 155.326 14.214 155.387 13.984C155.448 13.7387 155.571 13.616 155.755 13.616V16.284ZM158.17 21.183V18.561H161.252V21.183H158.17ZM173.058 16.284V13.616H175.68V16.284H173.058ZM169.999 16.284V0.0229962H173.058V16.284H169.999ZM175.68 16.284V13.616C175.864 13.616 175.987 13.7387 176.048 13.984C176.109 14.214 176.14 14.536 176.14 14.95C176.14 15.3487 176.109 15.6707 176.048 15.916C175.987 16.1613 175.864 16.284 175.68 16.284ZM177.081 3.393V2.358H182.187V3.393H177.081ZM177.081 1.093V0.0579952H182.187V1.093H177.081ZM181.175 16.284V13.616H183.59V16.284H181.175ZM175.678 16.284V13.616H179.887L178.093 15.111V4.738H181.175V16.284H175.678ZM175.678 16.284C175.494 16.284 175.371 16.1613 175.31 15.916C175.249 15.6707 175.218 15.3487 175.218 14.95C175.218 14.536 175.249 14.214 175.31 13.984C175.371 13.7387 175.494 13.616 175.678 13.616V16.284ZM183.59 16.284V13.616C183.774 13.616 183.897 13.7387 183.958 13.984C184.019 14.214 184.05 14.536 184.05 14.95C184.05 15.3487 184.019 15.6707 183.958 15.916C183.897 16.1613 183.774 16.284 183.59 16.284ZM178.093 21.183V18.561H181.175V21.183H178.093ZM183.584 16.284V13.616H193.474L192.439 14.467V10.212C192.439 9.292 192.148 8.59433 191.565 8.119C190.998 7.64366 190.093 7.406 188.851 7.406C188.499 7.406 188.016 7.43666 187.402 7.498C186.789 7.544 186.122 7.62066 185.401 7.728L185.102 5.29C185.762 5.13666 186.429 5.00633 187.103 4.899C187.793 4.79166 188.468 4.738 189.127 4.738C190.385 4.738 191.489 4.96033 192.439 5.405C193.39 5.83433 194.134 6.45533 194.67 7.268C195.222 8.08066 195.498 9.062 195.498 10.212V16.284H183.584ZM183.584 16.284C183.4 16.284 183.278 16.1613 183.216 15.916C183.155 15.6707 183.124 15.3487 183.124 14.95C183.124 14.536 183.155 14.214 183.216 13.984C183.278 13.7387 183.4 13.616 183.584 13.616V16.284ZM202.217 16.284V13.616H205.184V16.284H202.217ZM197.755 21.988C197.556 21.988 197.341 21.9803 197.111 21.965C196.881 21.9497 196.643 21.9267 196.398 21.896L196.513 19.274C196.758 19.2893 196.988 19.3047 197.203 19.32C197.433 19.3353 197.602 19.343 197.709 19.343C198.307 19.343 198.782 19.1053 199.135 18.63C199.503 18.1547 199.687 17.4877 199.687 16.629V4.738H202.769V16.629C202.769 17.6717 202.554 18.5993 202.125 19.412C201.711 20.2247 201.128 20.8533 200.377 21.298C199.626 21.758 198.752 21.988 197.755 21.988ZM205.184 16.284V13.616C205.368 13.616 205.491 13.7387 205.552 13.984C205.613 14.214 205.644 14.536 205.644 14.95C205.644 15.3487 205.613 15.6707 205.552 15.916C205.491 16.1613 205.368 16.284 205.184 16.284ZM205.192 16.284V13.616H217.129L215.726 14.812V10.58C215.726 9.752 215.634 9.108 215.45 8.648C215.266 8.17266 214.944 7.843 214.484 7.659C214.039 7.45966 213.418 7.36 212.621 7.36C211.992 7.36 211.371 7.406 210.758 7.498C210.16 7.57466 209.692 7.682 209.355 7.82L211.264 6.026C211.172 6.37866 211.08 6.82333 210.988 7.36C210.911 7.89666 210.842 8.47166 210.781 9.085C210.719 9.683 210.689 10.2733 210.689 10.856C210.689 11.3927 210.712 11.9523 210.758 12.535C210.819 13.1177 210.88 13.6313 210.942 14.076C211.018 14.5207 211.08 14.8273 211.126 14.996L208.205 15.801C208.143 15.5863 208.067 15.2337 207.975 14.743C207.883 14.2523 207.798 13.6697 207.722 12.995C207.66 12.3203 207.63 11.6073 207.63 10.856C207.63 10.0893 207.668 9.35333 207.745 8.648C207.821 7.92733 207.906 7.28333 207.998 6.716C208.105 6.13333 208.205 5.66566 208.297 5.313C208.665 5.175 209.24 5.037 210.022 4.899C210.804 4.761 211.67 4.692 212.621 4.692C214.001 4.692 215.143 4.88366 216.048 5.267C216.968 5.65033 217.65 6.27133 218.095 7.13C218.555 7.98866 218.785 9.14633 218.785 10.603V16.284H205.192ZM205.192 16.284C205.008 16.284 204.885 16.1613 204.824 15.916C204.762 15.6707 204.732 15.3487 204.732 14.95C204.732 14.536 204.762 14.214 204.824 13.984C204.885 13.7387 205.008 13.616 205.192 13.616V16.284Z" fill="#0C0D0D"/>
</svg>
